# Blender v2.77 (sub 0) OBJ File: ''
# www.blender.org
mtllib box.mtl
o Cube
v 1.000000 -1.000000 -1.000000
v 1.000000 0.060629 1.934881
v -1.000000 -1.000000 1.000000
v -1.000000 -1.000000 -1.000000
v 0.895686 1.216841 -1.031099
v 0.999999 1.000000 1.000001
v -1.000000 1.000000 1.000000
v -1.000000 1.000000 -1.000000
vn 0.0000 -1.0000 0.0000
vn -0.0000 0.9943 0.1062
vn 1.0000 0.0000 -0.0000
vn -0.4235 0.0000 0.9059
vn -1.0000 -0.0000 -0.0000
vn -0.0147 -0.0147 -0.9998
vn 0.3218 -0.8904 0.3218
vn -0.1136 0.9935 -0.0000
vn 0.9979 0.0463 -0.0463
vn -0.0000 0.7054 0.7088
vn 0.0000 0.0000 -1.0000
g Cube_Cube_Material
usemtl Material
s off
f 1//1 3//1 4//1
f 5//2 7//2 6//2
f 1//3 6//3 2//3
f 2//4 7//4 3//4
f 3//5 8//5 4//5
f 1//6 8//6 5//6
f 1//7 2//7 3//7
f 5//8 8//8 7//8
f 1//9 5//9 6//9
f 2//10 6//10 7//10
f 3//5 7//5 8//5
f 1//11 4//11 8//11
